<?xml version="1.0" standalone="no"?><!DOCTYPE svg PUBLIC "-//W3C//DTD SVG 1.1//EN" "http://www.w3.org/Graphics/SVG/1.1/DTD/svg11.dtd"><svg t="1649659260702" class="icon" viewBox="0 0 1024 1024" version="1.1" xmlns="http://www.w3.org/2000/svg" p-id="869" xmlns:xlink="http://www.w3.org/1999/xlink" width="200" height="200"><defs><style type="text/css"></style></defs><path d="M36.25381751 405.12312946c37.47370288-83.89834412 118.36613501-146.15412062 208.40989837-163.25442082 69.8707548-12.02364799 141.47825794 6.34581462 202.79886265 40.01202899 52.03567696 26.51882319 97.92593343 63.39134367 139.94190374 103.67056441-20.23980744 23.0453253-48.9629661 36.13774157-72.00829264 56.04355963-57.78030794-48.69577433-121.03805636-97.32475103-197.85580695-109.08120725-98.86110522-16.49911654-198.59058585 61.65459535-213.55334821 159.24653814-10.88808081 57.51311618 12.69162801 118.56652914 56.57794441 156.44102028 49.697745 43.81951751 121.77283526 55.8431655 184.89698592 39.14365358 72.1418879-17.43428958 127.71786038-71.47390788 171.40378264-128.71983105 67.73321698-90.31095637 124.24436248-188.37048507 185.16417893-283.22370888 17.43428958-23.98049834 59.38346101-21.57576874 73.54464684 4.8094592 79.69006733 136.53520223 157.91057684 273.93877988 237.46704765 410.540781 9.48532187 18.90384614 5.5442381 44.82148817-12.02364798 57.78030794-16.36552128 13.2928104-41.74877731 12.82522451-57.78030919-0.86837417-94.51923316-67.80001461-188.97166746-135.7336257-283.29050525-203.80083331 23.6465077-18.8370485 48.09459194-36.73892397 72.60947378-54.44040655 29.72512932 16.16512715 54.84119483 41.54838317 87.17144789 52.16927345-25.51685253-49.56414849-54.64080069-97.32475103-83.09676759-145.21894883-53.4384359 74.0790316-96.5231745 155.57264487-154.23668358 226.779361-60.05144229 78.55450015-144.21697817 145.55293822-244.61443882 159.98131579-48.69577433 4.27507442-99.32869237 5.27704509-145.75333235-12.49123388-66.99843806-23.98049834-125.64712143-73.54464683-156.04023202-138.47234593-35.33616506-70.27154307-33.53261785-156.57461553 0.26719176-227.04655274z" p-id="870" fill="#0e932e"></path></svg>